<svg width="500" height="297" viewBox="0 0 500 297" fill="none" xmlns="http://www.w3.org/2000/svg">
<path d="M15.6863 215.289H0V192.69H15.6863V159.782H44.3137V192.69H66.2745V215.289H44.3137V260.091C44.3137 268.021 47.8431 271.986 55.2941 271.986C56.8627 271.986 58.4314 271.986 59.6078 271.986C60.7843 271.986 63.1373 271.589 65.8824 270.796V292.603C61.9608 293.792 58.4314 294.585 56.0784 294.982C53.7255 295.378 51.3725 295.378 48.6274 295.378C36.8627 295.378 28.6275 292.603 23.1373 287.052C18.4314 281.501 15.6863 272.779 15.6863 260.884V215.289ZM72.549 34.0973C80.3922 34.0973 86.6667 35.6833 91.7647 39.2516C96.8627 42.8199 100.784 47.5777 102.745 53.5249C106.275 47.5777 111.373 42.8199 117.647 39.2516C123.922 35.6833 130.588 34.0973 138.039 34.0973C149.804 34.0973 158.824 37.2692 165.098 44.0093C171.373 50.353 174.51 59.8686 174.51 71.763V138.768H145.882V79.2961C145.882 65.4193 140.392 58.6791 129.02 58.6791C123.137 58.6791 118.431 60.6615 114.902 64.6263C111.373 68.5911 109.412 73.7454 109.412 80.0891V138.372H80.7843V78.8996C80.7843 65.0228 75.2941 58.2826 63.9216 58.2826C58.0392 58.2826 53.3333 60.2651 49.8039 64.2299C46.2745 68.1947 44.3137 73.3489 44.3137 79.6926V137.975H15.6863V37.2692H43.5294V47.9742C47.0588 43.6129 51.3725 40.441 56.0784 37.6657C61.5686 35.2868 67.0588 34.0973 72.549 34.0973ZM121.569 296.964C105.098 296.964 92.549 292.206 83.9216 283.087C74.902 273.572 70.5882 260.488 70.5882 243.043C70.5882 234.717 71.7647 227.58 74.1176 220.84C76.4706 214.1 80 208.549 84.3137 204.188C88.6275 199.826 94.1176 195.861 100.392 193.483C106.667 191.104 113.725 189.518 121.569 189.518C129.412 189.518 136.471 190.707 142.745 193.483C149.02 195.861 154.51 199.43 158.824 204.188C163.137 208.945 166.667 214.496 169.02 220.84C171.373 227.58 172.549 234.717 172.549 243.043C172.549 260.488 168.235 273.572 159.216 283.087C150.588 292.206 138.039 296.964 121.569 296.964ZM121.569 273.572C135.686 273.572 143.137 263.263 143.137 243.043C143.137 233.131 141.176 225.597 137.647 220.443C134.118 215.289 128.627 212.91 121.569 212.91C114.51 212.91 109.02 215.289 105.49 220.443C101.961 225.597 100 233.131 100 243.043C100.392 263.66 107.451 273.572 121.569 273.572ZM181.961 293.792V159.782H210.588V202.602C214.118 198.637 218.431 195.465 223.137 193.086C228.235 190.707 233.333 189.518 239.216 189.518C252.941 189.518 263.529 194.275 270.98 203.395C278.431 212.91 282.353 225.994 282.353 243.043C282.353 250.972 281.176 258.505 279.216 264.849C277.255 271.589 274.118 277.14 270.196 281.898C266.275 286.655 261.569 290.224 256.078 292.999C250.588 295.775 244.314 296.964 237.647 296.964C232.157 296.964 226.667 295.775 221.961 293.396C217.255 291.017 213.333 287.845 209.804 283.087V293.396H181.961V293.792ZM280.784 106.653C277.255 129.649 261.569 141.147 234.51 141.147C218.039 141.147 205.49 136.389 196.863 127.27C188.235 118.151 183.922 104.671 183.922 87.2257C183.922 78.8996 185.098 71.763 187.451 65.0228C189.804 58.2826 193.333 52.7319 197.647 47.9742C201.961 43.2164 207.451 39.6481 213.725 37.2692C220 34.8903 227.059 33.3044 234.902 33.3044C249.804 33.3044 261.569 37.6657 269.412 45.9917C277.647 54.3178 281.569 66.6087 281.569 82.0715V93.9659H212.941C213.725 109.825 220.784 117.755 234.902 117.755C245.098 117.755 250.98 113.79 252.941 105.86H280.784V106.653ZM210.196 245.025C210.196 254.144 211.765 260.884 215.294 266.038C218.824 271.193 223.922 273.572 230.588 273.572C237.647 273.572 242.745 270.796 246.667 265.642C250.196 260.488 252.157 252.955 252.157 243.439C252.157 233.924 250.196 226.39 246.667 221.236C243.137 216.082 237.647 213.703 230.588 213.703C223.922 213.703 218.824 216.082 215.294 221.236C211.765 226.39 209.804 233.131 209.804 242.25V245.025H210.196ZM253.725 75.7278C253.725 62.6439 247.059 55.9038 234.118 55.9038C227.843 55.9038 222.745 57.4897 218.824 61.058C215.294 64.6263 213.333 69.3841 212.941 75.7278H253.725ZM290.98 0H320.392V24.5818H290.98V0ZM291.373 37.2692H320V138.372H291.373V37.2692ZM291.373 159.782H320V293.792H291.373V159.782ZM425.882 106.653C422.353 129.649 406.667 141.147 379.608 141.147C363.137 141.147 350.588 136.389 341.961 127.27C333.333 118.151 329.02 104.671 329.02 87.2257C329.02 78.8996 330.196 71.763 332.549 65.0228C334.902 58.2826 338.431 52.7319 342.745 47.9742C347.059 43.2164 352.549 39.6481 358.824 37.2692C365.098 34.8903 372.157 33.3044 380 33.3044C394.902 33.3044 406.667 37.6657 414.51 45.9917C422.745 54.3178 426.667 66.6087 426.667 82.0715V93.9659H358.039C358.824 109.825 365.882 117.755 380 117.755C390.196 117.755 396.078 113.79 398.039 105.86H425.882V106.653ZM425.882 262.074C422.353 285.07 406.667 296.567 379.608 296.567C363.137 296.567 350.588 291.81 341.961 282.691C333.333 273.572 329.02 260.091 329.02 242.646C329.02 234.32 330.196 227.183 332.549 220.443C334.902 213.703 338.431 208.152 342.745 203.791C347.059 199.033 352.549 195.465 358.824 193.086C365.098 190.707 372.157 189.121 380 189.121C394.902 189.121 406.667 193.483 414.51 201.809C422.745 210.135 426.667 222.426 426.667 237.888V249.783H358.039C358.824 265.642 365.882 273.572 380 273.572C390.196 273.572 396.078 269.607 398.039 261.677H425.882V262.074ZM399.216 75.7278C399.216 62.6439 392.549 55.9038 379.608 55.9038C373.333 55.9038 368.235 57.4897 364.314 61.058C360.784 64.6263 358.824 69.3841 358.431 75.7278H399.216ZM399.216 231.148C399.216 218.064 392.549 211.324 379.608 211.324C373.333 211.324 368.235 212.91 364.314 216.478C360.784 220.047 358.824 224.804 358.431 231.148H399.216ZM489.804 35.2868C492.157 35.2868 493.725 35.2868 494.902 35.2868C496.078 35.2868 498.039 35.6833 500 36.4762V62.2475C498.039 61.851 496.078 61.4545 494.118 61.4545C491.765 61.058 490.196 61.058 488.235 61.058C485.098 61.058 481.961 61.4545 478.824 62.6439C476.078 63.8334 473.333 65.0228 471.373 66.6087C469.412 68.1947 467.451 70.5735 466.667 72.9524C465.49 75.3313 465.098 78.1067 465.098 80.882V137.975H436.471V37.2692H464.314V48.7671C467.451 44.8023 471.373 41.234 475.686 39.2516C480 36.4762 484.706 35.2868 489.804 35.2868ZM489.804 191.104C492.157 191.104 493.725 191.104 494.902 191.104C496.078 191.104 498.039 191.5 500 192.293V218.064C498.039 217.668 496.078 217.271 494.118 217.271C491.765 216.875 490.196 216.875 488.235 216.875C485.098 216.875 481.961 217.271 478.824 218.461C476.078 219.65 473.333 220.84 471.373 222.822C469.412 224.408 467.451 226.787 466.667 229.166C465.49 231.545 465.098 234.32 465.098 237.095V294.189H436.471V192.69H464.314V204.188C467.451 200.223 471.373 196.654 475.686 194.672C480 192.293 484.706 191.104 489.804 191.104Z" fill="#179fd5"></path>
</svg>