<svg xmlns="http://www.w3.org/2000/svg" width="322.102" height="85.181" viewBox="0 0 322.102 85.181"><g transform="translate(-60.01 -200.846)"><g transform="translate(60.01 189.75)"><path d="M96.925,197.687a27.221,27.221,0,0,0-5.39-.386c-14.01,0-20.706,10.624-21.629,19.938l.152.152A15.066,15.066,0,0,1,82.6,211.233c8.468,0,15.316,6.005,15.316,15.78,0,5.464-2.927,17.089-18.628,17.089-10.238,0-18.78-7.853-18.78-23.706,0-13.394,8.7-30.636,31.173-30.636a51.079,51.079,0,0,1,6.08.308l-.846,7.619Zm-26.711,28.4c0,1.079,1.539,10.008,10.008,10.008,5.082,0,8.313-4,8.313-8.621a7.837,7.837,0,0,0-8.235-8.235c-3.924,0-7.159,2.155-10.082,6.851Z" transform="translate(-60.363 -178.66)" fill="#fdc82f"/><path d="M704.556,357.91,688.2,367.249V357.91H683.54v21.244H688.2v-7.081l6.332-3.556,13.225,10.638h7.318l-16.126-12.659,14.158-8.585Z" transform="translate(-405.318 -282.876)" fill="#0039a6"/><path d="M81,357.91l-16.353,9.339V357.91H60.01v21.244h4.641v-7.081l6.332-3.556,13.23,10.638h7.313L75.4,366.495l14.158-8.585Z" transform="translate(-60.01 -282.876)" fill="#0039a6"/><rect width="5.127" height="21.244" transform="translate(36.379 75.034)" fill="#0039a6"/><path d="M259.36,357.91v21.244h27.428v-3.529h-22.5v-5.631h16.126v-3.5H264.291V361.4h20.543V357.91Z" transform="translate(-170.409 -282.876)" fill="#0039a6"/><path d="M449.162,357.91v15.671L430.573,357.91H424.96v21.244h5.122V363.461l18.12,15.693h5.854V357.91Z" transform="translate(-262.118 -282.876)" fill="#0039a6"/><path d="M510.49,357.91v21.244h27.384v-3.529H515.416v-5.631h15.635v-3.5H515.416V361.4H536.45V357.91Z" transform="translate(-309.484 -282.876)" fill="#0039a6"/><path d="M577.77,357.91V361.4h12.467v17.75h4.9V361.4h11.985V357.91Z" transform="translate(-346.743 -282.876)" fill="#0039a6"/><rect width="4.377" height="21.244" transform="translate(265.389 75.034)" fill="#0039a6"/><g transform="translate(50.577 74.998)"><path d="M195.867,370.2c1.459,0,3.418,1.08,3.418,2.57s-1.959,2.833-3.418,2.833H178.273v-5.4h17.594Zm-1.486-8.813c1.963,0,2.949,1.008,2.949,2.517a2.99,2.99,0,0,1-2.949,2.8H178.273V361.4h16.108Zm-21.021-3.556h22.011c3.918,0,6.854,2.548,6.854,5.578,0,1.508-.482,3.521-1.945,4.047,2.436,1.5,3.382,3.03,3.382,5.047,0,4.047-3.382,6.6-7.8,6.6H173.36V357.83Z" transform="translate(-173.36 -357.83)" fill="#0039a6" fill-rule="evenodd"/><path d="M343.793,366.479V361.4h17.1a2.767,2.767,0,0,1,2.94,2.512,3.234,3.234,0,0,1-2.94,2.57Zm16.617,3.5,9.3,9.138h-5.881l-8.795-9.138H343.793v9.138H338.88V357.84h22.993c3.436,0,7.349,2.543,7.349,6.068,0,3.03-3.913,6.068-7.349,6.068h-1.464Z" transform="translate(-265.024 -357.836)" fill="#0039a6" fill-rule="evenodd"/></g><rect width="7.09" height="7.09" transform="translate(315.012 89.183)" fill="#fdc82f"/><path d="M190.472,216.921c0-13.009,2.771-19.63,8.776-19.63s8.776,6.621,8.776,19.63a53.1,53.1,0,0,1-.9,10.65h9.707a51.139,51.139,0,0,0,1.042-10.65c0-13.009-4-27.171-18.628-27.171s-18.628,14.162-18.628,27.171a51.139,51.139,0,0,0,1.042,10.65h9.707A53.1,53.1,0,0,1,190.472,216.921Z" transform="translate(-135.92 -178.654)" fill="#fdc82f"/><g transform="translate(42.107 51.024)"><path d="M173.793,309.9a4.729,4.729,0,0,0,.794.085c1.461,0,2.548-.6,2.571-2.945l.085-9.629h2.674l-.085,10.193c-.022,2.674-1.881,4.555-4.844,4.555a9.569,9.569,0,0,1-1.358-.126l.167-2.129Z" transform="translate(-173.63 -297.403)" fill="#fdc82f"/><path d="M198.745,312.148l-2.485-.753,5.557-14h2.467l5.16,14-2.611.753-1.421-4.136h-5.034l-1.628,4.136Zm4.262-11.948h-.041l-1.818,5.638h3.531Z" transform="translate(-187.866 -297.396)" fill="#fdc82f"/><path d="M238.9,297.4h2.693l-.041,5.89h6.373l.041-5.89h2.715l-.126,14.455h-2.715l.082-6.265h-6.373l-.085,6.265H238.77L238.9,297.4Z" transform="translate(-214.607 -297.396)" fill="#fdc82f"/><path d="M281.282,297.4h4.574c3.487,0,4.908,1.881,4.908,4.177a3.892,3.892,0,0,1-2.8,3.761l4.114,5.39-2.381,1.421-4.01-5.579a1.094,1.094,0,0,0-.961-.5h-.835l-.022,5.787H281.13l.145-14.455Zm4.3,6.5a2.184,2.184,0,0,0,2.381-2.233c0-1.38-1.087-2.088-2.444-2.088h-1.547l-.041,4.325h1.651Z" transform="translate(-241.254 -297.396)" fill="#fdc82f"/><path d="M317.4,297.394h7.73v2.3h-5.056l-.041,3.717h5.015v2.174H320.02L320,309.549h5.137v2.3H317.26l.145-14.455Z" transform="translate(-263.983 -297.39)" fill="#fdc82f"/></g></g></g></svg>