<?xml version="1.0" encoding="utf-8"?>
<!-- Generator: Adobe Illustrator 21.1.0, SVG Export Plug-In . SVG Version: 6.00 Build 0)  -->
<svg version="1.1" id="Ebene_1" xmlns="http://www.w3.org/2000/svg" xmlns:xlink="http://www.w3.org/1999/xlink" x="0px" y="0px"
	 viewBox="0 0 123.7 17" style="enable-background:new 0 0 123.7 17;" xml:space="preserve">
<style type="text/css">
	.st0{fill-rule:evenodd;clip-rule:evenodd;}
	.st1{fill:#0072BA;}
</style>
<path class="st0" d="M37.1,16.3C34.4,17,32.3,17,30.7,17c-4.4,0-9.5-2.2-9.5-8.4c0-6.2,4.4-8.6,10.4-8.6c1.1,0,3.4,0.1,5,0.8v3.6
	c-1.3-0.8-3.4-1.1-4.4-1.1c-3.6,0-6.5,1.5-6.5,5.4c0,3.2,2.3,5.2,5.5,5.2c0.6,0,1.2-0.2,1.6-0.3v-3.3h-2.6V7.1h6.8V16.3"/>
<polyline class="st0" points="40.9,0.3 52.4,0.3 52.4,3.4 45.2,3.4 45.2,6.8 52,6.8 52,9.9 45.2,9.9 45.2,13.7 52.7,13.7 52.7,16.8 
	40.9,16.8 40.9,0.3 "/>
<path class="st0" d="M60.4,9.8h1.3c1.5,0,3.3,0.2,3.3,1.9c0,1.7-1.7,1.9-3.3,1.9h-1.3V9.8 M56.1,16.8h7c2.9,0,6.4-0.8,6.4-4.8
	c0-2-1.1-3.2-3.4-3.6V8.3C67.9,7.7,69,6.5,69,4.4c0-2.8-2.3-4.2-5.4-4.2h-7.5V16.8z M60.4,3.4h1.3c1.5,0,2.9,0.1,2.9,1.6
	c0,1.4-1.5,1.8-2.9,1.8h-1.3V3.4z"/>
<polyline class="st0" points="72.6,0.3 84.2,0.3 84.2,3.4 77,3.4 77,6.8 83.8,6.8 83.8,9.9 77,9.9 77,13.7 84.5,13.7 84.5,16.8 
	72.6,16.8 72.6,0.3 "/>
<path class="st0" d="M92.2,3.4h1.1c1.7,0,3.3,0.3,3.3,1.8c0,1.9-1.8,1.9-3.3,1.9h-1.1V3.4 M87.7,16.8h4.4v-6.5h0.9
	c1.6,0,2.2,0.8,3,3.6l1,2.9h4.5l-1.6-4.4c-0.8-2-0.9-3.3-2.3-3.7c2.2-0.5,3.2-2,3.2-4.2c0-2.8-2.3-4.2-5.3-4.2h-7.9V16.8z"/>
<rect x="104.4" y="0.3" width="4.4" height="16.5"/>
<polyline class="st0" points="115.3,3.5 111.2,3.5 111.2,0.3 123.7,0.3 123.7,3.5 119.6,3.5 119.6,16.8 115.3,16.8 115.3,3.5 "/>
<rect x="0" y="0.3" class="st1" width="16.5" height="16.5"/>
</svg>
