<?xml version="1.0" encoding="utf-8"?>
<!-- Generator: Adobe Illustrator 27.5.0, SVG Export Plug-In . SVG Version: 6.00 Build 0)  -->
<svg version="1.1" id="Ebene_1" xmlns="http://www.w3.org/2000/svg" xmlns:xlink="http://www.w3.org/1999/xlink" x="0px" y="0px"
	 viewBox="0 0 113.9527588 34.7414169" enable-background="new 0 0 113.9527588 34.7414169" xml:space="preserve">
<g>
	<path d="M18.9168396,28.7848949c0-1.3652344,0.2080078-2.1191406,0.7675781-2.7304688
		c0.6230469-0.6621094,1.4042969-0.9482422,2.6640625-0.9482422c1.3398438,0,2.1845703,0.3378906,2.7958984,1.1044922
		c0.4677734,0.5986328,0.6367188,1.2998047,0.6367188,2.5742188v2.2099609c0,1.3779316-0.2080078,2.1191425-0.7666016,2.7304707
		c-0.6240234,0.6630859-1.4179688,0.9492188-2.6660156,0.9492188c-1.3378906,0-2.1835938-0.3378906-2.7949219-1.1054688
		c-0.4550781-0.5849609-0.6367188-1.3125-0.6367188-2.5742207V28.7848949z M24.0779724,28.9284496
		c0-1.7685547-0.4814453-2.4443359-1.7294922-2.4443359s-1.7285156,0.6757812-1.7285156,2.4443359v1.9238281
		c0,1.76758,0.4804688,2.4443378,1.7285156,2.4443378s1.7294922-0.6767578,1.7294922-2.4443378V28.9284496z"/>
	<path d="M28.3162537,32.7106781c0.3896484,0.546875,0.7148438,0.6894531,1.5078125,0.6894531
		c0.8974609,0,1.3261719-0.2734375,1.3261719-0.8447266c0-0.2861328-0.1298828-0.4941406-0.3642578-0.5849628
		c-0.2080078-0.0917969-0.2080078-0.0917969-1.0664062-0.1953125c-1.6503906-0.2080078-2.2353516-0.7148438-2.2353516-1.9375
		c0-1.3642578,0.8583984-2.1191406,2.4052734-2.1191406c1.2480469,0,2.0664062,0.390625,2.6132812,1.2744141l-1.1972656,0.6894531
		c-0.3505859-0.5205078-0.6757812-0.6894531-1.2988281-0.6894531c-0.6376953,0-0.9882812,0.2734375-0.9882812,0.7675781
		c0,0.4804688,0.2460938,0.6367188,1.15625,0.7402344c1.0410156,0.1171875,1.5087891,0.234375,1.8984375,0.5078125
		c0.4033203,0.2851562,0.6113281,0.8320312,0.6113281,1.5722675c0,1.4306641-0.8974609,2.09375-2.7949219,2.09375
		c-1.3916016,0-2.3007812-0.4160156-2.7558594-1.2744141L28.3162537,32.7106781z"/>
	<path d="M33.9060974,29.1364574v-1.2744141h0.7539062l0.0908203-1.9501953h1.5214844v1.9501953h1.3261719v1.2744141h-1.3261719
		v2.7685547c0,1.0136738,0.2597656,1.3261738,1.1435547,1.3134785h0.1826172v1.3125h-0.234375
		c-2.2363281,0-2.7041016-0.4804688-2.7041016-2.7822285v-2.6123047H33.9060974z"/>
	<path d="M39.9891052,32.7106781c0.390625,0.546875,0.7148438,0.6894531,1.5078125,0.6894531
		c0.8974609,0,1.3261719-0.2734375,1.3261719-0.8447266c0-0.2861328-0.1289062-0.4941406-0.3632812-0.5849628
		c-0.2089844-0.0917969-0.2089844-0.0917969-1.0664062-0.1953125c-1.6503906-0.2080078-2.2363281-0.7148438-2.2363281-1.9375
		c0-1.3642578,0.8583984-2.1191406,2.4052734-2.1191406c1.2480469,0,2.0673828,0.390625,2.6132812,1.2744141l-1.1962891,0.6894531
		c-0.3505859-0.5205078-0.6757812-0.6894531-1.2998047-0.6894531c-0.6376953,0-0.9882812,0.2734375-0.9882812,0.7675781
		c0,0.4804688,0.2470703,0.6367188,1.1572266,0.7402344c1.0400391,0.1171875,1.5078125,0.234375,1.8984375,0.5078125
		c0.4023438,0.2851562,0.6113281,0.8320312,0.6113281,1.5722675c0,1.4306641-0.8974609,2.09375-2.7958984,2.09375
		c-1.3916016,0-2.3007812-0.4160156-2.7558594-1.2744141L39.9891052,32.7106781z"/>
	<path d="M51.0652771,33.4001312c-0.5322266,0.8710938-1.3515625,1.2744141-2.5351562,1.2744141
		c-1.8847656,0-2.7685547-1.0400391-2.7685547-3.2373066v-0.4160156c0-1.1308594,0.1689453-1.8330078,0.5722656-2.3662109
		c0.4550781-0.6113281,1.1962891-0.9365234,2.1455078-0.9365234c1.1826172,0,1.9755859,0.4160156,2.4697266,1.2871094
		l-1.2089844,0.6767578c-0.3251953-0.5078125-0.6240234-0.6767578-1.1318359-0.6767578
		c-0.8447266,0-1.234375,0.5849609-1.234375,1.8720703v0.7158203c0,1.1826191,0.4287109,1.7802753,1.2734375,1.7802753
		c0.546875,0,0.8974609-0.1816406,1.2226562-0.6494141L51.0652771,33.4001312z"/>
	<path d="M52.4949646,25.2487621h1.6123047v2.9511719c0.5722656-0.3896484,0.8710938-0.4814453,1.546875-0.4814453
		c1.1181641,0,1.8720703,0.4423828,2.1845703,1.2871094c0.1425781,0.3769531,0.1943359,0.8847656,0.1943359,1.703125v3.8222675
		h-1.6113281v-3.70508c0-1.2216797-0.3388672-1.7285156-1.1181641-1.7285156c-0.8457031,0-1.1962891,0.5458984-1.1962891,1.8974609
		v3.5361347h-1.6123047V25.2487621z"/>
	<path d="M59.4236755,27.8620434h1.6386719l1.1181641,4.6796894l1.3779297-4.6796894h1.1435547l1.3779297,4.6796894
		l1.1181641-4.6796894h1.6386719l-1.9765625,6.6689472h-1.3779297l-1.3515625-4.2382832l-1.3398438,4.2382832h-1.3779297
		L59.4236755,27.8620434z"/>
	<path d="M71.5916443,31.8014965c0,1.0527363,0.4941406,1.61133,1.4433594,1.61133
		c0.6367188,0,1.0273438-0.1943359,1.3779297-0.6884766l1.1826172,0.6884766
		c-0.5585938,0.8974609-1.3388672,1.2617188-2.7421875,1.2617188c-2.015625,0-2.8867188-0.9619141-2.8867188-3.1982441v-0.4677734
		c0-2.3271484,0.8320312-3.2900391,2.8603516-3.2900391s2.8603516,0.9628906,2.8603516,3.2900391v0.5849609h-4.0957031V31.8014965z
		 M74.165863,30.4753246v-0.1435547c0-0.9101562-0.4550781-1.4033203-1.2998047-1.4033203
		c-0.8193359,0-1.2871094,0.5068359-1.2871094,1.4033203v0.1435547H74.165863z"/>
	<path d="M77.4412537,25.1706371h1.6123047v1.6513672h-1.6123047V25.1706371z M77.4412537,27.8620434h1.6123047v6.6689472
		h-1.6123047V27.8620434z"/>
	<path d="M80.6521912,33.5173187l2.9384766-4.3554707h-2.6914062v-1.2998047h4.6933594v1.0136719l-2.9384766,4.3554707h3.1337891
		v1.2998047h-5.1357422V33.5173187z"/>
</g>
<g>
	<path d="M20.1168613,5.1616821c-0.822937,0.6612549-1.2341309,1.5432129-1.2341309,2.6448975
		c0,1.7319946,1.0668945,2.8424683,3.2006226,3.3303833l2.3617554,0.5430908
		c0.5436401,0.1347046,0.9664307,0.3587646,1.2700195,0.6733398c0.3029785,0.3157349,0.4542236,0.6888428,0.4542236,1.1226807
		c0,0.5739746-0.2340088,1.0288086-0.7025757,1.3632812c-0.4686279,0.3355713-1.1000366,0.5022583-1.8953857,0.5022583
		c-1.2363281,0-2.2319946-0.4371338-2.9881592-1.3114014c-0.3620605-0.4481812-0.692688-0.6722412-0.9918213-0.6722412
		c-0.276001,0-0.4923706,0.0805664-0.6496582,0.2416992c-0.1578369,0.1611938-0.2362061,0.3841553-0.2362061,0.666748
		c0,0.7561646,0.4608765,1.3986206,1.382019,1.9251709c0.9603882,0.5441895,2.0863647,0.8157349,3.3773193,0.8157349
		c1.4488525,0,2.5946655-0.333374,3.4368896-0.9978638c0.8422852-0.6656494,1.2639771-1.5653076,1.2639771-2.6989746
		c0-0.882019-0.2583618-1.5928955-0.7738647-2.1315918c-0.5155029-0.5397949-1.3130493-0.9393921-2.3915405-1.1987915
		l-2.3032227-0.5552368c-0.6220093-0.1578979-1.0801392-0.3764648-1.3754272-0.6557007
		c-0.2952881-0.2792969-0.4431763-0.6435547-0.4431763-1.0928345c0-0.5740356,0.2185669-1.0255127,0.6557007-1.3522339
		c0.4371338-0.3267822,1.0370483-0.4901733,1.8009644-0.4901733c0.5430908,0,1.013916,0.0949707,1.4113159,0.2836914
		c0.3973389,0.1887817,0.8046875,0.5045166,1.2225342,0.9449463c0.2516479,0.251709,0.4442749,0.4194946,0.5784302,0.5022583
		c0.1340942,0.0827637,0.2913818,0.1236572,0.4724121,0.1236572c0.2600098,0,0.4686279-0.0750732,0.6259155-0.2241211
		c0.1572876-0.1500854,0.2362061-0.3543091,0.2362061-0.6148682c0-0.3068237-0.1081543-0.6170654-0.3245239-0.9327393
		c-0.2169189-0.3146362-0.5099487-0.5983276-0.8797607-0.8499756c-0.9057617-0.5983276-1.9924927-0.8974609-3.2597656-0.8974609
		C22.0397739,4.1693115,20.9397984,4.4993896,20.1168613,5.1616821z"/>
	<path d="M44.9620781,2.5742188c0.3852539,0,0.7042847-0.1236572,0.9564819-0.3720093
		c0.251709-0.2472534,0.3781128-0.5563354,0.3781128-0.9261475c0-0.3709106-0.1264038-0.6755981-0.3781128-0.9161987
		C45.6663628,0.1203003,45.347332,0,44.9620781,0c-0.3626099,0-0.6672974,0.1203003-0.9156494,0.3598633
		c-0.2478638,0.2406006-0.3720093,0.5452881-0.3720093,0.9161987c0,0.369812,0.1257935,0.678894,0.3780518,0.9261475
		C44.3041801,2.4505615,44.607708,2.5742188,44.9620781,2.5742188z"/>
	<path d="M45.7060966,16.7191162c0.1887207-0.1931763,0.2831421-0.4746094,0.2831421-0.8444214V5.3978882
		c0-0.3620605-0.0927734-0.642395-0.2776489-0.8389282c-0.1848755-0.1964722-0.4271851-0.2958374-0.7263184-0.2958374
		c-0.3068848,0-0.5547485,0.097168-0.7440186,0.2903442c-0.1887817,0.1920776-0.2831421,0.4735718-0.2831421,0.8444214v10.4768066
		c0,0.3620605,0.0943604,0.6413574,0.2831421,0.8389282c0.18927,0.1964722,0.4332275,0.2947388,0.7324219,0.2947388
		C45.2728081,17.0083618,45.5167656,16.9122925,45.7060966,16.7191162z"/>
	<path d="M50.1152153,5.1616821c-0.822937,0.6612549-1.2341309,1.5432129-1.2341309,2.6448975
		c0,1.7319946,1.0668945,2.8424683,3.2006836,3.3303833l2.3616943,0.5430908
		c0.5437012,0.1347046,0.9664917,0.3587646,1.2700195,0.6733398c0.3030396,0.3157349,0.4542236,0.6888428,0.4542236,1.1226807
		c0,0.5739746-0.2340088,1.0288086-0.7025757,1.3632812c-0.4686279,0.3355713-1.1000366,0.5022583-1.8953857,0.5022583
		c-1.2363281,0-2.2319946-0.4371338-2.9881592-1.3114014c-0.3620605-0.4481812-0.692688-0.6722412-0.9918213-0.6722412
		c-0.276001,0-0.4923096,0.0805664-0.6496582,0.2416992c-0.1578369,0.1611938-0.2362061,0.3841553-0.2362061,0.666748
		c0,0.7561646,0.4608765,1.3986206,1.382019,1.9251709c0.9603882,0.5441895,2.0863647,0.8157349,3.3773193,0.8157349
		c1.4488525,0,2.5946655-0.333374,3.4368896-0.9978638c0.8422852-0.6656494,1.2639771-1.5653076,1.2639771-2.6989746
		c0-0.882019-0.2583008-1.5928955-0.7738037-2.1315918c-0.515564-0.5397949-1.3131104-0.9393921-2.3915405-1.1987915
		l-2.3032837-0.5552368c-0.6220093-0.1578979-1.0801392-0.3764648-1.3754272-0.6557007
		c-0.2952271-0.2792969-0.4431763-0.6435547-0.4431763-1.0928345c0-0.5740356,0.2185669-1.0255127,0.6557007-1.3522339
		c0.4371338-0.3267822,1.0371094-0.4901733,1.8009644-0.4901733c0.5430908,0,1.013916,0.0949707,1.4113159,0.2836914
		c0.3973999,0.1887817,0.8046875,0.5045166,1.2225342,0.9449463c0.2516479,0.251709,0.4442749,0.4194946,0.5784302,0.5022583
		c0.1340942,0.0827637,0.2914429,0.1236572,0.4724731,0.1236572c0.2599487,0,0.4685669-0.0750732,0.6258545-0.2241211
		c0.1573486-0.1500854,0.2362671-0.3543091,0.2362671-0.6148682c0-0.3068237-0.1082153-0.6170654-0.324585-0.9327393
		c-0.2168579-0.3146362-0.5099487-0.5983276-0.8797607-0.8499756c-0.9057007-0.5983276-1.9924927-0.8974609-3.2597046-0.8974609
		C52.0381279,4.1693115,50.9381523,4.4993896,50.1152153,5.1616821z"/>
	<path d="M61.5107231,5.1616821c-0.822937,0.6612549-1.2341309,1.5432129-1.2341309,2.6448975
		c0,1.7319946,1.0668945,2.8424683,3.2006836,3.3303833l2.3617516,0.5430908
		c0.5436401,0.1347046,0.9664307,0.3587646,1.2700195,0.6733398c0.3029785,0.3157349,0.4542236,0.6888428,0.4542236,1.1226807
		c0,0.5739746-0.2340088,1.0288086-0.7026367,1.3632812c-0.4685669,0.3355713-1.0999756,0.5022583-1.8953247,0.5022583
		c-1.2363243,0-2.2320518-0.4371338-2.9881554-1.3114014c-0.3621216-0.4481812-0.692688-0.6722412-0.9918823-0.6722412
		c-0.2759399,0-0.4923096,0.0805664-0.6495972,0.2416992c-0.1578369,0.1611938-0.2362671,0.3841553-0.2362671,0.666748
		c0,0.7561646,0.4608765,1.3986206,1.3820801,1.9251709c0.9603882,0.5441895,2.0863037,0.8157349,3.3773155,0.8157349
		c1.4487915,0,2.5946045-0.333374,3.4368896-0.9978638c0.8422241-0.6656494,1.263916-1.5653076,1.263916-2.6989746
		c0-0.882019-0.2583008-1.5928955-0.7738037-2.1315918c-0.5155029-0.5397949-1.3130493-0.9393921-2.3915405-1.1987915
		l-2.3032227-0.5552368c-0.6220055-0.1578979-1.0801353-0.3764648-1.3754234-0.6557007
		c-0.2952881-0.2792969-0.4432373-0.6435547-0.4432373-1.0928345c0-0.5740356,0.2185669-1.0255127,0.6557007-1.3522339
		c0.4371338-0.3267822,1.0371094-0.4901733,1.8010216-0.4901733c0.5430908,0,1.013855,0.0949707,1.4112549,0.2836914
		c0.3973999,0.1887817,0.8047485,0.5045166,1.2225342,0.9449463c0.251709,0.251709,0.4443359,0.4194946,0.5784302,0.5022583
		c0.1341553,0.0827637,0.2914429,0.1236572,0.4724731,0.1236572c0.2599487,0,0.4686279-0.0750732,0.6259155-0.2241211
		c0.1572876-0.1500854,0.2362061-0.3543091,0.2362061-0.6148682c0-0.3068237-0.1081543-0.6170654-0.3245239-0.9327393
		c-0.2169189-0.3146362-0.5100098-0.5983276-0.8798218-0.8499756c-0.9057007-0.5983276-1.9924316-0.8974609-3.2597046-0.8974609
		C63.4336967,4.1693115,62.3336601,4.4993896,61.5107231,5.1616821z"/>
	<path d="M73.1540909,5.692627c-0.9642334,1.015564-1.4466553,2.3269653-1.4466553,3.9331055v1.9605103
		c0,1.6767578,0.4802246,2.9992065,1.4411621,3.9683838c0.9603271,0.9681396,2.2750244,1.4526978,3.9446411,1.4526978
		c0.8345337,0,1.6039429-0.1224976,2.3087769-0.3664551c0.7042847-0.2439575,1.253418-0.5751343,1.647522-0.9923706
		c0.3858032-0.4018555,0.5784302-0.7947998,0.5784302-1.1811523c0-0.2439575-0.0745239-0.4481812-0.2240601-0.6137695
		c-0.1495972-0.1655884-0.3389282-0.2483521-0.5668335-0.2483521c-0.1733398,0-0.322937,0.0397339-0.4487305,0.118103
		c-0.1264038,0.0794678-0.3505249,0.2682495-0.6734009,0.5673828c-0.6611938,0.6380615-1.5040283,0.9559326-2.5272827,0.9559326
		c-1.0630493,0-1.897583-0.3123779-2.5041504-0.9382935c-0.6060181-0.6258545-0.9134521-1.4780273-0.9212036-2.5565186v-0.6502075
		h7.0626221c0.4332275,0,0.7263184-0.118103,0.8797607-0.3543091c0.1539917-0.2362671,0.2307129-0.6921387,0.2307129-1.3699341
		c0-1.527771-0.4708252-2.7773438-1.4113159-3.7498779c-0.94104-0.9724731-2.1514282-1.4581909-3.6317139-1.4581909
		C75.3646011,4.1693115,74.1188736,4.677063,73.1540909,5.692627z M79.9158707,9.4127197V9.447998h-6.1535645V9.4127197
		c0-1.0387573,0.2914429-1.8810425,0.8742676-2.5267944c0.5823364-0.645752,1.3423462-0.9691772,2.279541-0.9691772
		c0.9129028,0,1.6414185,0.3156738,2.1845093,0.9448853C79.6443253,7.4919434,79.9158707,8.3419189,79.9158707,9.4127197z"/>
	<path d="M84.812294,13.4992676c0,1.2837524,0.2340088,2.1845093,0.7026367,2.7044678
		c0.4680176,0.5198975,1.2694702,0.7793579,2.4031372,0.7793579c0.645752,0,1.1342163-0.0828247,1.4648438-0.2473145
		c0.3460693-0.1655884,0.5193481-0.4260864,0.5193481-0.7803955c0-0.227417-0.072876-0.4106445-0.2185669-0.548645
		s-0.3322754-0.2064209-0.560791-0.2064209c-0.0628662,0-0.1810303,0.0054932-0.3543091,0.0176392
		c-0.1733398,0.0110474-0.3190308,0.0177002-0.4371338,0.0177002c-0.574585,0-0.9642334-0.1203613-1.1690063-0.3609619
		c-0.2047729-0.239563-0.3068848-0.6899414-0.3068848-1.3522949V6.1055298h1.6530762
		c0.2913818,0,0.5215454-0.0739746,0.690979-0.2241211c0.1694946-0.1489868,0.2539062-0.357666,0.2539062-0.6259155
		c0-0.2670898-0.0844116-0.4779663-0.2539062-0.6314087c-0.1694336-0.1534424-0.3995972-0.2307129-0.690979-0.2307129h-1.6652222
		V2.3500977c0-0.3543091-0.0883179-0.6291504-0.2654419-0.8267822c-0.1771851-0.1964722-0.4272461-0.2947388-0.7501221-0.2947388
		c-0.3151245,0-0.56073,0.0982666-0.737915,0.2947388c-0.1771851,0.1976318-0.2660522,0.4724731-0.2660522,0.8267822
		L84.812294,13.4992676z"/>
	<path d="M92.8118057,5.692627c-0.9642334,1.015564-1.4466553,2.3269653-1.4466553,3.9331055v1.9605103
		c0,1.6767578,0.4801636,2.9992065,1.4411011,3.9683838c0.9603882,0.9681396,2.2750854,1.4526978,3.9447021,1.4526978
		c0.8345337,0,1.6039429-0.1224976,2.3087158-0.3664551c0.7042847-0.2439575,1.253479-0.5751343,1.647583-0.9923706
		c0.3858032-0.4018555,0.5784302-0.7947998,0.5784302-1.1811523c0-0.2439575-0.0745239-0.4481812-0.2241211-0.6137695
		c-0.1495361-0.1655884-0.3388672-0.2483521-0.5668335-0.2483521c-0.1732788,0-0.322876,0.0397339-0.4487305,0.118103
		c-0.1264038,0.0794678-0.3504639,0.2682495-0.6733398,0.5673828c-0.6612549,0.6380615-1.5040283,0.9559326-2.5273438,0.9559326
		c-1.0629883,0-1.897522-0.3123779-2.5040894-0.9382935c-0.6060791-0.6258545-0.9135132-1.4780273-0.9212036-2.5565186v-0.6502075
		h7.062561c0.4332886,0,0.7263794-0.118103,0.8798218-0.3543091c0.1539917-0.2362671,0.2307129-0.6921387,0.2307129-1.3699341
		c0-1.527771-0.4708252-2.7773438-1.4113159-3.7498779c-0.94104-0.9724731-2.1514893-1.4581909-3.6317749-1.4581909
		C95.0222549,4.1693115,93.7765884,4.677063,92.8118057,5.692627z M99.5735245,9.4127197V9.447998h-6.1535034V9.4127197
		c0-1.0387573,0.2914429-1.8810425,0.8742676-2.5267944c0.5822754-0.645752,1.3422852-0.9691772,2.27948-0.9691772
		c0.9129028,0,1.6414795,0.3156738,2.1845703,0.9448853C99.3019791,7.4919434,99.5735245,8.3419189,99.5735245,9.4127197z"/>
	<path d="M105.2118301,5.6153564c-0.9096069,0.9647827-1.3643799,2.2618408-1.3643799,3.8922729v2.149231
		c0,1.645874,0.4564819,2.9484863,1.3699341,3.9088135c0.9134521,0.9614868,2.1812134,1.4416504,3.8027954,1.4416504
		c1.1182251,0,2.0946045-0.2439575,2.9291382-0.7329712c0.4724731-0.2670898,0.8544312-0.5905762,1.145813-0.9680786
		c0.2908936-0.3775024,0.4365845-0.763855,0.4365845-1.157959c0-0.3068848-0.0844116-0.5386963-0.2539062-0.6965332
		c-0.1694336-0.1567383-0.3758545-0.2362061-0.619812-0.2362061c-0.1655884,0-0.3206787,0.0452271-0.4663696,0.1357422
		s-0.25,0.1710815-0.3129272,0.2428589c-0.0634766,0.0706177-0.1495972,0.1766357-0.2600098,0.3179321
		c-0.6380005,0.8587646-1.5040283,1.288208-2.5985107,1.288208c-1.015564,0-1.7871704-0.333374-2.3148193-0.9979248
		c-0.5270996-0.6656494-0.7908936-1.5498047-0.7908936-2.6514893V9.6135864c0-1.1016235,0.2654419-1.9836426,0.7969971-2.6459351
		c0.5314941-0.6612549,1.2970581-0.991333,2.2971191-0.991333c1.0945435,0,1.9489136,0.4294434,2.5626831,1.2871704
		c0.1103516,0.1500854,0.1986694,0.2637939,0.2659912,0.3421631c0.0668335,0.0794678,0.1711426,0.1578369,0.3129883,0.2362671
		c0.1418457,0.0794678,0.2991333,0.118103,0.4724731,0.118103c0.2753906,0,0.4901123-0.0883179,0.6435547-0.2660522
		c0.1534424-0.1766357,0.2301025-0.4028931,0.2301025-0.678894c0-0.3929443-0.1495361-0.7770996-0.4486694-1.1513062
		c-0.2991943-0.3742065-0.6656494-0.69104-1.0983887-0.9504395c-0.8267822-0.4956665-1.8147583-0.7440186-2.9644165-0.7440186
		C107.3787613,4.1693115,106.1208878,4.6516724,105.2118301,5.6153564z"/>
	<path d="M30.6476231,5.362793v6.670166c0,4.2683105,2.4732685,4.9622192,5.0170918,4.9622192
		c2.5419312,0,5.0151978-0.6939087,5.0151978-4.9622192V5.362793c0-0.6785889-0.3564453-1.0996704-0.9984131-1.0996704
		s-1.0446167,0.4210815-1.0446167,1.0996704v6.5998535c0,2.1299438-0.9998779,3.2533569-2.972168,3.2533569
		c-1.9741821,0-2.9799194-1.1234131-2.9799194-3.2533569V5.362793c0-0.6785889-0.40448-1.0996704-1.0464497-1.0996704
		C30.9963779,4.2631226,30.6476231,4.6842041,30.6476231,5.362793z"/>
	<path d="M10.8515425,6.9851685C8.5171919,7.5861206,7.6565351,8.9038086,7.5661421,9.0519409
		c-0.2546997,0.4174805-0.1234131,0.9541626,0.2890015,1.2166748c0.1472168,0.093811,0.3123169,0.1382446,0.4758911,0.1382446
		c0.2944336,0,0.5845337-0.1445312,0.7582397-0.406189c0.0233765-0.0348511,0.5864868-0.8599243,2.2093506-1.2774048
		c2.3740234-0.6106567,3.1864014-2.1019897,3.2713013-2.2698975c0.2203979-0.4367065,0.0463257-0.9619141-0.3863525-1.1903076
		c-0.4314575-0.2282104-0.9720459-0.06073-1.2084351,0.3676147C12.9537153,5.6690674,12.4369307,6.5774536,10.8515425,6.9851685z"/>
	<path d="M9.1270552,12.4710693c0.1472168,0.0938721,0.3119507,0.1382446,0.4758911,0.1382446
		c0.2944336,0,0.5845947-0.1444702,0.7582397-0.406189c0.0233765-0.0348511,0.5865479-0.8596802,2.2093506-1.2771606
		c2.3740234-0.6108398,3.1864014-2.1018066,3.2713013-2.2698975c0.220458-0.4367065,0.0463867-0.961731-0.3859253-1.1903076
		c-0.4330444-0.2280273-0.9728394-0.06073-1.2088623,0.3674316c-0.0213623,0.0385742-0.538208,0.9467163-2.1235962,1.3546753
		c-2.3343506,0.600708-3.1950073,1.918396-3.2853394,2.0665894C8.583415,11.6717529,8.7146406,12.2086182,9.1270552,12.4710693z"/>
	<path d="M9.5231123,4.6847534c-2.3343506,0.600708-3.1950073,1.918396-3.2853394,2.0665894
		C5.9830732,7.1686401,6.1142988,7.7054443,6.5267134,7.9679565c0.1472168,0.0938721,0.3119507,0.1382446,0.4759521,0.1382446
		c0.2943726,0,0.5845337-0.1444702,0.7582397-0.406189C7.7842207,7.6651611,8.3473921,6.840332,9.9701948,6.4228516
		c2.3740845-0.6106567,3.1864624-2.1020508,3.2713623-2.2698975c0.2203979-0.4367676,0.0463257-0.9619141-0.3863525-1.1903687
		c-0.4315186-0.2287598-0.9724731-0.0605469-1.2084351,0.3676758C11.6253462,3.3685913,11.1085615,4.2769775,9.5231123,4.6847534z"
		/>
	<path d="M0.1509807,6.3795166v8.4771729c0,1.0670166,0.8681641,1.9352417,1.9352417,1.9352417h8.4771729
		c1.0670166,0,1.9352417-0.8682251,1.9352417-1.9352417v-1.8425293c0-0.4729614-0.3835449-0.8563232-0.8563232-0.8563232
		s-0.8563232,0.3833618-0.8563232,0.8563232v1.8425293c0,0.1228027-0.0999756,0.2225952-0.2225952,0.2225952H2.0862224
		c-0.1226807,0-0.2226562-0.0997925-0.2226562-0.2225952V6.3795166c0-0.1226807,0.0999756-0.2224731,0.2226562-0.2224731H5.546916
		c0.4727783,0,0.8563232-0.3833618,0.8563232-0.8563232c0-0.4729004-0.3835449-0.8562622-0.8563232-0.8562622H2.0862224
		C1.0191448,4.444458,0.1509807,5.312439,0.1509807,6.3795166z"/>
</g>
</svg>
