<?xml version="1.0" encoding="UTF-8"?>
<svg id="Ebene_1" xmlns="http://www.w3.org/2000/svg" version="1.1" viewBox="0 0 283.4645669 106.8657517">
  <!-- Generator: Adobe Illustrator 29.5.1, SVG Export Plug-In . SVG Version: 2.1.0 Build 141)  -->
  <defs>
    <style>
      .st0 {
        fill: #009849;
      }

      .st1 {
        fill: #00368f;
      }
    </style>
  </defs>
  <path class="st1" d="M37.071247,0c-11.94376,0-19.9009916,7.8586501-22.4145546,22.1480492L0,106.8657517l245.9394861-.0017315c18.6469024,0,20.1769278-8.6620609,22.4922605-21.7734705L283.4645669.0002886s-246.3373353-.0002886-246.3933199-.0002886ZM2.3170999,104.8260399L16.4368301,22.7459561C18.8084674,9.2035587,25.8482392,2.0486578,36.7971938,2.0486578c.0324826,0,244.3851477.00029,244.3851477.00029l-14.7141479,83.236701c-2.0302891,11.323421-3.4966306,19.5047182-19.4596407,19.5285002l-244.691453.011891Z"/>
  <g>
    <g>
      <path class="st1" d="M97.7287301,49.927666l-8.5882347-31.9751707h-10.236717l-18.1859071,31.9751707h10.3978818l2.62863-5.0276298h12.3450988l1.0969678,5.0276298h10.5422805ZM82.5629719,27.1929543l1.9623266,10.6778458h-7.0986665l5.13634-10.6778458Z"/>
      <path class="st1" d="M222.5877021,49.927666l-8.5882347-31.9751707h-10.236717l-18.1859071,31.9751707h10.3978818l2.62863-5.0276298h12.3450988l1.0969678,5.0276298h10.5422805ZM207.4219439,27.1929543l1.9623266,10.6778458h-7.0986665l5.13634-10.6778458Z"/>
      <polygon class="st1" points="130.0729319 18.1552814 127.073147 35.0926331 115.830369 17.9525417 107.4855595 17.9525417 101.7972549 49.9277279 110.9326689 49.9277279 113.9714795 32.9189037 125.1677772 49.9277279 133.5120298 49.9277279 139.2003963 17.9525417 130.1095888 17.9525417 130.0729319 18.1552814"/>
      <polygon class="st1" points="158.574216 17.9536456 152.8802642 49.9277279 143.0267544 49.9277279 148.7145641 17.9525417 158.574216 17.9536456"/>
      <polyline class="st1" points="192.2407158 17.9525417 163.5188001 17.9525417 162.1100746 25.9095967 171.7969134 25.9095967 167.5177674 49.9277279 177.371834 49.9277279 181.65098 25.9095967 191.1411421 25.9095967 192.5493108 17.9525417 192.2407158 17.9525417"/>
      <polygon class="st0" points="53.2694873 57.6597273 51.9505486 65.1099639 42.7482559 65.1099639 38.4690609 89.1230143 29.1318971 89.1230143 33.411154 65.1099639 24.2985691 65.1099639 25.6174459 57.6597273 53.2694873 57.6597273"/>
      <path class="st0" d="M81.0772641,74.0653899c-1.25534,2.1387742-3.0822079,3.7757955-5.4814209,4.9161369l4.4861498,10.1414333h-10.5494571l-2.6979006-8.4385232h-4.9379529l-1.5213378,8.4385232h-9.3371019l5.5981339-31.4632792h14.7235941c3.6511093,0,6.4656742.7754315,8.44529,2.3313677,1.9785638,1.5559207,2.9999971,3.7707224,3.0626911,6.6443817.0613671,2.8128436-.5352857,5.2911853-1.7906875,7.4299595M63.1753847,73.6540538h5.3869252c1.645675,0,2.9443973-.4872874,3.896551-1.4670592.9512257-.9797718,1.4101613-2.296507,1.3748891-3.9501976-.0234411-1.0990011-.3556892-1.9439922-.996523-2.5245954s-1.5603137-.8709126-2.7568926-.8709126h-5.3869871l-1.5179626,8.8127648Z"/>
      <path class="st0" d="M111.6904783,58.9823303c2.3910402,1.2726141,4.2701404,3.0307641,5.6363441,5.2759736,1.3655981,2.2401364,2.0794985,4.7843592,2.1415401,7.6281211.0725238,3.3242248-.6998801,6.3448581-2.3160604,9.0664704-1.6170594,2.7266854-3.8519493,4.8710355-6.7050386,6.4416652-2.8540682,1.5711324-6.0167213,2.3572129-9.48792,2.3572129-3.0226595,0-5.7303745-.6390988-8.1222305-1.9264219-2.3924127-1.2873153-4.2713608-3.0611797-5.6374013-5.3215932-1.3665352-2.2604057-2.0803212-4.8249056-2.1430151-7.6985649-.0724133-3.3191594.6995953-6.3352299,2.3164296-9.0467115,1.6165119-2.7064084,3.8519283-4.8294606,6.7066597-6.3701928,2.8542253-1.5412427,6.016554-2.3166742,9.4888044-2.3166742,3.0221645,0,5.7293118.6385961,8.1218878,1.9107153M98.8944478,66.072707c-1.3139218.8261165-2.3591388,1.9563193-3.1357126,3.3906163-.7765627,1.4348074-1.1467863,3.0054371-1.1095238,4.7134126.0319551,1.4647049.36754,2.7925666,1.0070904,3.9734544.6389936,1.1808878,1.490144,2.1185049,2.5526731,2.8027051,1.0621559.6897837,2.2221312,1.0339139,3.4790309,1.0339139,1.4961413,0,2.8787833-.4155948,4.1472722-1.2569075,1.2680424-.836255,2.268878-1.9816618,3.0000188-3.4311627.7315252-1.4545663,1.0784154-3.0454731,1.0404784-4.7843669-.0312917-1.434297-.3445354-2.7363136-.9381068-3.9025001-.594166-1.1707493-1.4078663-2.0875866-2.4392406-2.761656-1.032932-.6745721-2.1769828-1.0090741-3.4339444-1.0090741-1.4666923,0-2.8565598.4105217-4.1700355,1.231565"/>
      <polygon class="st0" points="151.1629313 64.8412889 134.7333415 64.8412889 133.8367998 69.8540093 148.7398096 69.8540093 147.493603 76.8832454 132.5905933 76.8832454 131.6504299 81.9413444 148.5284971 81.9413444 147.2488612 89.1229601 121.0782986 89.1229601 126.6764324 57.6596809 152.4430623 57.6596809 151.1629313 64.8412889"/>
      <path class="st0" d="M175.9181109,57.9739987c2.2884374.6588732,4.2680716,1.5407323,5.9382841,2.6455926l-4.0620585,7.2272353c-1.57736-.9578865-3.3460341-1.7890683-5.3064684-2.4884802-1.9610398-.7044773-3.584522-1.059759-4.8708088-1.059759-.8687432,0-1.5451924.1677614-2.0321408.4971903-.4864536.3294289-.7229111.8058394-.7092002,1.434297.0176913.8109048.4500595,1.4393624,1.2980323,1.8853651.8476503.4510681,2.1750394.9426825,3.982574,1.4849742,2.0181554.6284576,3.6697629,1.2264996,4.95475,1.793631,1.2840193.5681445,2.4105141,1.4449382,3.378952,2.625826s1.4736411,2.7317508,1.515437,4.6475238c.0521897,2.3921834-.5320317,4.419457-1.752664,6.0818207s-2.8767089,2.904075-4.9686631,3.7251183c-2.092016.8210433-4.4249426,1.2366381-6.9985679,1.2366381-2.6927202,0-5.3671053-.4612066-8.0199643-1.3734813-2.653849-.9122747-4.9105059-2.1590436-6.7702055-3.7453876l4.1087172-7.1360039c1.4662803,1.3734813,3.3021885,2.5442305,5.5078878,3.4970516,2.2047581.9578865,4.1310508,1.4393624,5.7771588,1.4393624,1.077484,0,1.9183697-.2077974,2.5229176-.6284576.6035581-.4206602.8976828-1.0187022.8807654-1.7941337-.0176915-.8109125-.4503334-1.4292316-1.2975901-1.8650957-.8478135-.4358641-2.1900415-.9072015-4.0261274-1.4140199-1.9874414-.5676341-3.6312709-1.135276-4.930114-1.7079755-1.2991658-.5676419-2.4322225-1.4190931-3.4002221-2.554369-.9670584-1.1403414-1.4714783-2.6354541-1.5119475-4.4904113-.0483196-2.2147939.5004998-4.1462812,1.6469865-5.7929306,1.1460295-1.6420867,2.7715495-2.9147162,4.87746-3.8163419,2.1044633-.897063,4.5492634-1.3430657,7.3322482-1.3430657,2.3343838,0,4.6455776.3294289,6.9345715.9882866"/>
      <path class="st0" d="M209.1497245,58.6023557c2.2667902,1.0136368,4.1520015,2.3769795,5.6554615,4.0849628l-5.9646048,6.416315c-.8969348-1.3177232-1.9895381-2.3567024-3.2776862-3.11693-1.2893103-.765293-2.576837-1.1454068-3.8631238-1.1454068-1.4966362,0-2.879672.4003831-4.1482673,1.2112957-1.2697577.8058394-2.2703155,1.9157729-3.0024515,3.3196543-.7325201,1.4089623-1.0801734,2.9648907-1.0430215,4.6678008.0314022,1.4393624.3437685,2.7266854.9372222,3.8619537.5930076,1.1403414,1.4133296,2.0374121,2.4606433,2.6962776,1.0467569.6588655,2.2129207.9832289,3.5001974.9832289,1.2265228,0,2.5435603-.334502,3.9504453-1.0085714,1.4064519-.6740694,2.6819882-1.5610016,3.824965-2.6709351l4.9285315,5.7473188c-1.8448804,1.8549572-4.0197778,3.334866-6.5240866,4.4447995-2.505471,1.1048681-4.9397827,1.6572983-7.3031204,1.6572983-2.9334466,0-5.5508858-.6385884-7.8530958-1.9259115-2.3026429-1.2873153-4.1147124-3.0611797-5.4356514-5.3215932-1.3214338-2.2604057-2.0129477-4.8249133-2.0756416-7.6985727-.0724241-3.3196543.6919856-6.3352299,2.2941574-9.0467037,1.6017875-2.7064084,3.8148586-4.829971,6.639213-6.3707032,2.8238595-1.5407323,5.9420767-2.3161638,9.3540063-2.3161638,2.3632759,0,4.6794404.5118915,6.9459078,1.530586"/>
      <polygon class="st0" points="241.6245351 57.6597273 250.961637 57.6597273 245.3635033 89.1230143 236.0264014 89.1230143 238.1349364 77.2568844 226.9575862 77.2568844 224.8489894 89.1230143 215.5118874 89.1230143 221.1100211 57.6597273 230.4471231 57.6597273 228.2075405 70.2288251 239.3848907 70.2288251 241.6245351 57.6597273"/>
    </g>
    <path class="st1" d="M55.7003206,18.1274943c2.3541791.6756933,4.3906837,1.5800649,6.1088777,2.7131307l-4.1787524,7.4117359c-1.6226741-.9823399-3.4421581-1.8347406-5.4589114-2.5520074-2.0173761-.7224615-3.6874973-1.0868131-5.0107362-1.0868131-.8937002,0-1.5895823.1720441-2.0905197.5098828-.5004283.3378387-.7436787.8264113-.7295739,1.4709125.0181995.831606.4629887,1.4761072,1.3353218,1.9334956.8720013.4625832,2.2375234.9667478,4.0969845,1.5228834,2.0761325.6445012,3.775187,1.2578103,5.0970888,1.8394198,1.3209062.5826484,2.4797627,1.4818253,3.4760217,2.6928595.996259,1.2110341,1.5159755,2.8014884,1.5589721,4.7661682.053689,2.4532524-.5473157,4.5322793-1.8030141,6.2370807s-2.9593503,2.9782117-5.1114016,3.8202151c-2.152115.8420034-4.5520612,1.2682077-7.199621,1.2682077-2.770076,0-5.5212902-.4729805-8.2503599-1.4085442-2.7300881-.9355637-5.0515738-2.2141608-6.9646983-3.8410019l4.2267515-7.3181756c1.5084033,1.4085442,3.3970529,2.609181,5.6661171,3.5863261,2.2680959.9823399,4.2497266,1.4761072,5.9431236,1.4761072,1.1084377,0,1.9734801-.2131022,2.5953954-.6445012.620897-.431399.9234712-1.0447082.9060678-1.8399353-.0181997-.8316139-.4632704-1.4657178-1.3348669-1.9127089-.8721693-.4469911-2.2529565-.930361-4.1417891-1.4501178-2.0445361-.582125-3.7355892-1.1642579-5.0717451-1.7515776-1.3364879-.5821329-2.5020948-1.4553204-3.4979029-2.6195783-.9948398-1.1694526-1.5137506-2.7027334-1.5553823-4.6050449-.0497077-2.2713343.514878-4.2521296,1.6943007-5.9408155,1.1789523-1.6840067,2.8511699-2.9891246,5.0175784-3.9137675,2.1649198-.9199637,4.6799535-1.3773521,7.5428873-1.3773521,2.4014454,0,4.7790347.3378387,7.1337863,1.0135161"/>
    <path class="st1" d="M251.4556549,18.1274943c2.3541791.6756933,4.3906837,1.5800649,6.1088777,2.7131307l-4.1787524,7.4117359c-1.6226741-.9823399-3.4421581-1.8347406-5.4589114-2.5520074-2.0173761-.7224615-3.6874973-1.0868131-5.0107362-1.0868131-.8937002,0-1.5895823.1720441-2.0905197.5098828-.5004283.3378387-.7436787.8264113-.7295739,1.4709125.0181995.831606.4629887,1.4761072,1.3353218,1.9334956.8720013.4625832,2.2375234.9667478,4.0969845,1.5228834,2.0761325.6445012,3.775187,1.2578103,5.0970888,1.8394198,1.3209062.5826484,2.4797627,1.4818253,3.4760217,2.6928595.996259,1.2110341,1.5159755,2.8014884,1.5589721,4.7661682.053689,2.4532524-.5473157,4.5322793-1.8030141,6.2370807s-2.9593503,2.9782117-5.1114016,3.8202151c-2.152115.8420034-4.5520612,1.2682077-7.199621,1.2682077-2.770076,0-5.5212902-.4729805-8.2503599-1.4085442-2.7300881-.9355637-5.0515738-2.2141608-6.9646983-3.8410019l4.2267515-7.3181756c1.5084033,1.4085442,3.3970529,2.609181,5.6661171,3.5863261,2.2680959.9823399,4.2497266,1.4761072,5.9431236,1.4761072,1.1084377,0,1.9734801-.2131022,2.5953954-.6445012.620897-.431399.9234712-1.0447082.9060678-1.8399353-.0181997-.8316139-.4632704-1.4657178-1.3348669-1.9127089-.8721693-.4469911-2.2529565-.930361-4.1417891-1.4501178-2.0445361-.582125-3.7355892-1.1642579-5.0717451-1.7515776-1.3364879-.5821329-2.5020948-1.4553204-3.4979029-2.6195783-.9948398-1.1694526-1.5137506-2.7027334-1.5553823-4.6050449-.0497077-2.2713343.514878-4.2521296,1.6943007-5.9408155,1.1789523-1.6840067,2.8511699-2.9891246,5.0175784-3.9137675,2.1649198-.9199637,4.6799535-1.3773521,7.5428873-1.3773521,2.4014454,0,4.7790347.3378387,7.1337863,1.0135161"/>
  </g>
</svg>