<svg viewBox="0 0 192.83 37.08">
<g><path fill="#002d59" d="m122.48,26.82V7.65h7.28v4.03h.08c1.07-3.53,3.43-4.79,8.42-4.79v5.76c-.73-.14-1.42-.28-2.8-.09-3.47.46-5.38,2.51-5.38,5.75v8.5h-7.6Zm45.62-6.16c1.33,5.47,6.71,7.12,13.61,7.12,5.39,0,11.12-1.98,11.12-7.26,0-8-16.41-4.96-16.41-8.27,0-1.29,2.5-1.62,3.73-1.62,1.04.04,2.75.33,3.26.7.52.43,1.15.83,1.24,1.66h7.27c-1.29-4.14-5.94-6.39-11.45-6.39-6.67,0-11.91,2.11-11.91,7.08,0,7.57,16.37,4.64,16.37,8.18,0,1.5-2.6,1.86-4.23,1.79-1.1-.05-2.53-.23-3.59-.96-.64-.32-1.28-1.23-1.42-2.02h-7.58Zm-50.06.74c-2.07,4.41-7.1,6.44-12.49,6.44-7.12,0-13.47-3.48-13.47-10.23,0-7.17,5.68-10.89,13.57-10.89,10.2,0,13.96,6.73,13.19,12.25h-18.46c.29,2.94,2.2,4.57,5.28,4.57,1.96,0,3.84-.43,4.83-2.13h7.57Zm-7.58-6.48c-.3-2.26-2.17-4.04-4.95-4.04s-4.65,1.78-5,4.04h9.96Zm-60.66-7.18v10.53c-.01,2.35-1.56,4.61-4.38,4.61s-4.39-2.29-4.39-4.82V7.73h-7.65v11.26c0,5.61,4.67,8.6,9.38,8.6,2.75,0,5.24-.96,7.18-2.9h.08v2.17h7.44V7.73h-7.66Zm107.24-.15v10.53c-.01,2.35-1.56,4.61-4.38,4.61s-4.39-2.29-4.39-4.82V7.58l-7.64-.03v11.29c0,5.61,4.66,8.6,9.37,8.6,2.75,0,5.24-.96,7.18-2.9h.08v2.17h7.44V7.58h-7.66ZM.03,37.08h191.69v-2.09H.03v2.09Zm29.95-17.77c-.02,3.92-3.24,7.88-10.77,7.78l-19.21.03V0h17.05c10.44-.23,11.58,3.79,11.77,6.3.25,3.41-1.97,5.77-5.47,6.42,4.08.57,6.65,3.23,6.63,6.58ZM8.07,10.78h7.86c3.37,0,4.23-1.37,4.23-3.05,0-1.53-.85-2.53-4.23-2.53h-7.86v5.58Zm12.75,8.17c0-2.3-1.21-3.36-4.27-3.36h-8.47v6.34h6.59c4.9,0,6.16-.92,6.16-2.99ZM80.68.09h7.76v26.94h-7.53v-2.32h-.09c-1.38,2.03-4.33,3.02-7.65,3.02-5.03,0-12.01-3.77-12.01-10.19,0-4.6,3.82-10.69,11.9-10.81,2.68,0,5.68.5,7.61,2.28V.09Zm-11.32,17.09c0,3.12,2.62,5.65,5.85,5.65s5.84-2.53,5.84-5.65-2.62-5.65-5.84-5.65-5.85,2.53-5.85,5.65"></path></g>
</svg>