<?xml version="1.0" encoding="utf-8"?>
<!-- Generator: Adobe Illustrator 24.3.0, SVG Export Plug-In . SVG Version: 6.00 Build 0)  -->
<svg version="1.1" id="Layer_1" focusable="false" xmlns="http://www.w3.org/2000/svg" xmlns:xlink="http://www.w3.org/1999/xlink"
	 x="0px" y="0px" viewBox="0 0 100 100" style="enable-background:new 0 0 100 100;" xml:space="preserve">
<style type="text/css">
	.st0{fill:#FFFFFF;}
</style>
<path class="st0" d="M78.3,4H21.7C11.9,4,4,11.9,4,21.7v56.6C4,88.1,11.9,96,21.7,96h56.6C88.1,96,96,88.1,96,78.3V21.7
	C96,11.9,88.1,4,78.3,4L78.3,4z M83.4,14.6h2v15.7H69.7V14.6H83.4z M37,40.6c2.8-3.9,7.9-6.7,13-6.7c5.1,0,10.2,2.8,13,6.7
	c2,2.8,3.1,5.9,3.1,9.4c0,9-7.5,16.1-16.1,16.1c-8.6,0-16.1-7.1-16.1-16.1C33.9,46.5,35.1,43.3,37,40.6z M87,78.3
	C87,83,83,87,78.3,87H21.7C17,87,13,83,13,78.3V40.6h13.8c-1.2,2.8-2,6.3-2,9.4c0,13.8,11.4,25.2,25.2,25.2S75.2,63.8,75.2,50
	c0-3.1-0.8-6.7-2-9.4H87L87,78.3z"/>
</svg>
