<svg preserveAspectRatio="xMidYMid meet" data-bbox="47.9 51 122.588 98.8" viewBox="47.9 51 122.588 98.8" height="200" width="200" xmlns="http://www.w3.org/2000/svg" data-type="shape" role="presentation" aria-hidden="true" aria-label="">
    <g>
        <path d="M169.6 52.2c-1.3-1.3-3.3-1.3-4.6 0l-18.2 18.2V54.2c0-1.8-1.5-3.2-3.2-3.2H51.1c-1.8 0-3.2 1.5-3.2 3.2v92.4c0 1.8 1.5 3.2 3.2 3.2h92.4c1.8 0 3.2-1.5 3.2-3.2v-67l22.8-22.8c1.3-1.3 1.3-3.4.1-4.6zm-29.3 91.1H54.4V57.4h85.9v19.4L100 117.1 81.1 98.4c-1.3-1.3-3.3-1.3-4.6 0s-1.3 3.3 0 4.6l21.1 21.1c.6.6 1.5 1 2.3 1s1.7-.3 2.3-1l38-38 .1 57.2z"></path>
    </g>
</svg>