<?xml version="1.0" encoding="utf-8"?>
<!-- Generator: Adobe Illustrator 24.3.0, SVG Export Plug-In . SVG Version: 6.00 Build 0)  -->
<svg version="1.1" id="Layer_1" focusable="false" xmlns="http://www.w3.org/2000/svg" xmlns:xlink="http://www.w3.org/1999/xlink"
	 x="0px" y="0px" viewBox="0 0 100 100" style="enable-background:new 0 0 100 100;" xml:space="preserve">
<style type="text/css">
	.st0{fill:#FFFFFF;}
</style>
<path class="st0" d="M93.4,14.3c-2.7,1.7-8.8,4.2-11.8,4.2v0c-3.5-3.6-8.3-5.9-13.7-5.9c-10.5,0-19,8.5-19,19c0,1.5,0.2,2.9,0.5,4.2
	h0c-14.2-0.4-29.8-7.5-39.1-19.7c-5.8,10-0.8,21,5.8,25.1c-2.2,0.2-6.4-0.3-8.3-2.1c-0.1,6.6,3,15.4,14.6,18.6
	c-2.2,1.2-6.2,0.9-7.9,0.6c0.6,5.6,8.4,12.9,17,12.9C28.3,74.6,16.9,81,4,79c8.7,5.3,18.9,8.4,29.7,8.4c30.6,0,54.4-24.8,53.1-55.4
	c0,0,0-0.1,0-0.1c0-0.1,0-0.2,0-0.2c0-0.1,0-0.2,0-0.3c2.8-1.9,6.5-5.3,9.2-9.7c-1.5,0.9-6.2,2.6-10.5,3
	C88.3,23.1,92.4,18.2,93.4,14.3"/>
</svg>
