<?xml version="1.0" encoding="utf-8"?>
<!-- Generator: Adobe Illustrator 24.3.0, SVG Export Plug-In . SVG Version: 6.00 Build 0)  -->
<svg version="1.1" id="Layer_1" focusable="false" xmlns="http://www.w3.org/2000/svg" xmlns:xlink="http://www.w3.org/1999/xlink"
	 x="0px" y="0px" viewBox="0 0 100 100" style="enable-background:new 0 0 100 100;" xml:space="preserve">
<style type="text/css">
	.st0{fill:#FFFFFF;}
</style>
<path class="st0" d="M52,81.7l-18.9-0.3c-6.1-0.1-12.2,0.1-18.2-1.1c-9.1-1.9-9.8-11-10.4-18.6C3.6,50.8,3.9,39.9,5.7,29.2
	c1-6,4.9-9.6,10.9-10C37,17.8,57.5,18,77.8,18.7c2.1,0.1,4.3,0.4,6.4,0.8C94.7,21.3,95,31.6,95.6,40.3c0.7,8.8,0.4,17.6-0.9,26.4
	c-1,7.2-3,13.3-11.4,13.9C72.9,81.4,62.6,82,52,81.7C52.1,81.7,52.1,81.7,52,81.7z M40.9,63.4c7.9-4.5,15.6-9,23.5-13.5
	c-7.9-4.5-15.6-9-23.5-13.5V63.4z"/>
</svg>
